<svg xmlns="http://www.w3.org/2000/svg" width="1440" height="390" viewBox="0 0 1440 390" role="img" aria-labelledby="title desc">
  <title id="title">AI Agent for Article Generation</title>
  <desc id="desc">Fluxo centralizado de um agente de IA para pesquisa e geração estruturada de artigos.</desc>
  <defs>
    <linearGradient id="bg" x1="0" y1="0" x2="1" y2="1">
      <stop offset="0" stop-color="#07111f"/>
      <stop offset="0.52" stop-color="#101935"/>
      <stop offset="1" stop-color="#24134f"/>
    </linearGradient>
    <linearGradient id="accent" x1="0" y1="0" x2="1" y2="0">
      <stop offset="0" stop-color="#38bdf8"/>
      <stop offset="0.5" stop-color="#818cf8"/>
      <stop offset="1" stop-color="#c084fc"/>
    </linearGradient>
  </defs>

  <rect width="1440" height="390" rx="28" fill="url(#bg)"/>

  <g opacity="0.12" stroke="#7dd3fc" stroke-width="1">
    <path d="M0 65H1440M0 130H1440M0 195H1440M0 260H1440M0 325H1440"/>
    <path d="M120 0V390M240 0V390M360 0V390M480 0V390M600 0V390M720 0V390M840 0V390M960 0V390M1080 0V390M1200 0V390M1320 0V390"/>
  </g>

  <text x="720" y="78" text-anchor="middle" fill="#f8fafc" font-family="Segoe UI, Arial, sans-serif" font-size="42" font-weight="700">AI Agent for Article Generation</text>
  <text x="720" y="120" text-anchor="middle" fill="#a8b6c8" font-family="Segoe UI, Arial, sans-serif" font-size="21">FastAPI, LangChain e Azure OpenAI para pesquisa e criação estruturada de conteúdo técnico</text>

  <g transform="translate(80 175)" font-family="Segoe UI, Arial, sans-serif">
    <g>
      <rect width="220" height="130" rx="18" fill="#0f172a" stroke="#38bdf8" stroke-width="2"/>
      <circle cx="110" cy="34" r="20" fill="#0c4a6e"/>
      <path d="M100 26h20v16h-20zM104 22h12" fill="none" stroke="#7dd3fc" stroke-width="3" stroke-linecap="round"/>
      <text x="110" y="78" text-anchor="middle" fill="#f8fafc" font-size="17" font-weight="700">Tema do usuário</text>
      <text x="110" y="105" text-anchor="middle" fill="#c3cedb" font-size="15">Assunto, idioma e tom</text>
    </g>

    <g transform="translate(265 0)">
      <rect width="220" height="130" rx="18" fill="#0f172a" stroke="#22d3ee" stroke-width="2"/>
      <circle cx="110" cy="34" r="20" fill="#164e63"/>
      <circle cx="106" cy="31" r="8" fill="none" stroke="#67e8f9" stroke-width="3"/>
      <path d="M112 37l8 8" stroke="#67e8f9" stroke-width="3" stroke-linecap="round"/>
      <text x="110" y="78" text-anchor="middle" fill="#f8fafc" font-size="17" font-weight="700">Pesquisa pública</text>
      <text x="110" y="105" text-anchor="middle" fill="#c3cedb" font-size="15">Contexto via API</text>
    </g>

    <g transform="translate(530 0)">
      <rect width="220" height="130" rx="18" fill="#0f172a" stroke="#818cf8" stroke-width="2"/>
      <circle cx="110" cy="34" r="20" fill="#312e81"/>
      <path d="M99 26h22M99 34h22M99 42h15" stroke="#a5b4fc" stroke-width="3" stroke-linecap="round"/>
      <text x="110" y="78" text-anchor="middle" fill="#f8fafc" font-size="17" font-weight="700">Orquestração</text>
      <text x="110" y="105" text-anchor="middle" fill="#c3cedb" font-size="15">Prompt com LangChain</text>
    </g>

    <g transform="translate(795 0)">
      <rect width="220" height="130" rx="18" fill="#0f172a" stroke="#a78bfa" stroke-width="2"/>
      <circle cx="110" cy="34" r="20" fill="#4c1d95"/>
      <path d="M100 34c0-8 5-13 10-13s10 5 10 13-5 13-10 13-10-5-10-13zM105 30h10M105 38h10" fill="none" stroke="#c4b5fd" stroke-width="2.5" stroke-linecap="round"/>
      <text x="110" y="78" text-anchor="middle" fill="#f8fafc" font-size="17" font-weight="700">Azure OpenAI</text>
      <text x="110" y="105" text-anchor="middle" fill="#c3cedb" font-size="15">Geração estruturada</text>
    </g>

    <g transform="translate(1060 0)">
      <rect width="220" height="130" rx="18" fill="#0f172a" stroke="#c084fc" stroke-width="2"/>
      <circle cx="110" cy="34" r="20" fill="#581c87"/>
      <path d="M101 24h18v22h-18zM105 30h10M105 36h10M105 42h7" fill="none" stroke="#e9d5ff" stroke-width="2.5" stroke-linecap="round"/>
      <text x="110" y="78" text-anchor="middle" fill="#f8fafc" font-size="17" font-weight="700">Pacote de conteúdo</text>
      <text x="110" y="105" text-anchor="middle" fill="#c3cedb" font-size="14">Artigo, SEO e LinkedIn</text>
    </g>

    <g fill="none" stroke="url(#accent)" stroke-width="4" stroke-linecap="round">
      <path d="M228 65h25"/>
      <path d="M493 65h25"/>
      <path d="M758 65h25"/>
      <path d="M1023 65h25"/>
    </g>
    <g fill="#c4b5fd">
      <path d="M253 65l-9-6v12z"/>
      <path d="M518 65l-9-6v12z"/>
      <path d="M783 65l-9-6v12z"/>
      <path d="M1048 65l-9-6v12z"/>
    </g>
  </g>

  <text x="720" y="350" text-anchor="middle" fill="#7f8da3" font-family="Segoe UI, Arial, sans-serif" font-size="14">Pesquisa • Prompt orchestration • Structured output • API-ready response</text>
</svg>
